<svg width="187" height="36" viewBox="0 0 187 36" fill="none" xmlns="http://www.w3.org/2000/svg">
<path d="M20.386 10.19C20.386 11.7087 20.0347 13.0913 19.332 14.338C18.6293 15.562 17.5867 16.5367 16.204 17.262C14.844 17.9873 13.1893 18.35 11.24 18.35H8.248V26H0.7V1.928H11.24C14.1867 1.928 16.442 2.676 18.006 4.172C19.5927 5.668 20.386 7.674 20.386 10.19ZM10.39 12.4C11.954 12.4 12.736 11.6633 12.736 10.19C12.736 8.71667 11.954 7.98 10.39 7.98H8.248V12.4H10.39ZM31.8921 26.238C29.9654 26.238 28.2314 25.8413 26.6901 25.048C25.1487 24.2547 23.9361 23.1213 23.0521 21.648C22.1907 20.152 21.7601 18.4067 21.7601 16.412C21.7601 14.4173 22.1907 12.6833 23.0521 11.21C23.9361 9.714 25.1487 8.56933 26.6901 7.776C28.2314 6.98267 29.9654 6.586 31.8921 6.586C33.8187 6.586 35.5527 6.98267 37.0941 7.776C38.6354 8.56933 39.8367 9.714 40.6981 11.21C41.5821 12.6833 42.0241 14.4173 42.0241 16.412C42.0241 18.4067 41.5821 20.152 40.6981 21.648C39.8367 23.1213 38.6354 24.2547 37.0941 25.048C35.5527 25.8413 33.8187 26.238 31.8921 26.238ZM31.8921 19.71C32.5947 19.71 33.1841 19.438 33.6601 18.894C34.1361 18.3273 34.3741 17.5 34.3741 16.412C34.3741 15.324 34.1361 14.508 33.6601 13.964C33.1841 13.3973 32.5947 13.114 31.8921 13.114C31.1894 13.114 30.6001 13.3973 30.1241 13.964C29.6481 14.508 29.4101 15.324 29.4101 16.412C29.4101 17.5 29.6367 18.3273 30.0901 18.894C30.5661 19.438 31.1667 19.71 31.8921 19.71ZM51.9433 9.442C52.4193 8.558 53.0993 7.86667 53.9833 7.368C54.89 6.84667 55.9666 6.586 57.2133 6.586C58.7093 6.586 60.058 6.98267 61.2593 7.776C62.4606 8.54667 63.4013 9.68 64.0813 11.176C64.784 12.6493 65.1353 14.3947 65.1353 16.412C65.1353 18.4293 64.784 20.186 64.0813 21.682C63.4013 23.1553 62.4606 24.2887 61.2593 25.082C60.058 25.8527 58.7093 26.238 57.2133 26.238C55.9666 26.238 54.89 25.9887 53.9833 25.49C53.0993 24.9687 52.4193 24.266 51.9433 23.382V35.18H44.3953V6.824H51.9433V9.442ZM57.4853 16.412C57.4853 15.392 57.2246 14.5987 56.7033 14.032C56.182 13.4653 55.5133 13.182 54.6973 13.182C53.8813 13.182 53.2126 13.4653 52.6913 14.032C52.17 14.5987 51.9093 15.392 51.9093 16.412C51.9093 17.432 52.17 18.2253 52.6913 18.792C53.2126 19.3587 53.8813 19.642 54.6973 19.642C55.5133 19.642 56.182 19.3587 56.7033 18.792C57.2246 18.2253 57.4853 17.432 57.4853 16.412Z" fill="#7FA6C2"/>
<path d="M76.5487 26.238C74.8034 26.238 73.2394 25.9547 71.8567 25.388C70.474 24.8213 69.3634 23.9827 68.5247 22.872C67.7087 21.7613 67.278 20.424 67.2327 18.86H73.4207C73.5114 19.744 73.8174 20.424 74.3387 20.9C74.86 21.3533 75.54 21.58 76.3787 21.58C77.24 21.58 77.92 21.3873 78.4187 21.002C78.9174 20.594 79.1667 20.0387 79.1667 19.336C79.1667 18.7467 78.9627 18.2593 78.5547 17.874C78.1694 17.4887 77.682 17.1713 77.0927 16.922C76.526 16.6727 75.71 16.3893 74.6447 16.072C73.1034 15.596 71.8454 15.12 70.8707 14.644C69.896 14.168 69.0574 13.4653 68.3547 12.536C67.652 11.6067 67.3007 10.394 67.3007 8.898C67.3007 6.67667 68.1054 4.94267 69.7147 3.696C71.324 2.42667 73.4207 1.792 76.0047 1.792C78.634 1.792 80.7534 2.42667 82.3627 3.696C83.972 4.94267 84.8334 6.688 84.9467 8.932H78.6567C78.6114 8.16133 78.328 7.56067 77.8067 7.13C77.2854 6.67667 76.6167 6.45 75.8007 6.45C75.098 6.45 74.5314 6.64267 74.1007 7.028C73.67 7.39067 73.4547 7.92333 73.4547 8.626C73.4547 9.39667 73.8174 9.99733 74.5427 10.428C75.268 10.8587 76.4014 11.3233 77.9427 11.822C79.484 12.3433 80.7307 12.842 81.6827 13.318C82.6574 13.794 83.496 14.4853 84.1987 15.392C84.9014 16.2987 85.2527 17.466 85.2527 18.894C85.2527 20.254 84.9014 21.4893 84.1987 22.6C83.5187 23.7107 82.5214 24.5947 81.2067 25.252C79.892 25.9093 78.3394 26.238 76.5487 26.238ZM106.715 16.208C106.715 16.752 106.681 17.3187 106.613 17.908H93.4547C93.5453 19.0867 93.9193 19.9933 94.5767 20.628C95.2567 21.24 96.084 21.546 97.0587 21.546C98.5093 21.546 99.518 20.934 100.085 19.71H106.273C105.955 20.9567 105.377 22.0787 104.539 23.076C103.723 24.0733 102.691 24.8553 101.445 25.422C100.198 25.9887 98.804 26.272 97.2627 26.272C95.404 26.272 93.7493 25.8753 92.2987 25.082C90.848 24.2887 89.7147 23.1553 88.8987 21.682C88.0827 20.2087 87.6747 18.486 87.6747 16.514C87.6747 14.542 88.0713 12.8193 88.8647 11.346C89.6807 9.87267 90.814 8.73933 92.2647 7.946C93.7153 7.15267 95.3813 6.756 97.2627 6.756C99.0987 6.756 100.731 7.14133 102.159 7.912C103.587 8.68267 104.697 9.782 105.491 11.21C106.307 12.638 106.715 14.304 106.715 16.208ZM100.765 14.678C100.765 13.6807 100.425 12.8873 99.7447 12.298C99.0647 11.7087 98.2147 11.414 97.1947 11.414C96.22 11.414 95.3927 11.6973 94.7127 12.264C94.0553 12.8307 93.6473 13.6353 93.4887 14.678H100.765ZM108.626 16.48C108.626 14.5307 108.988 12.8193 109.714 11.346C110.462 9.87267 111.47 8.73933 112.74 7.946C114.009 7.15267 115.426 6.756 116.99 6.756C118.327 6.756 119.494 7.028 120.492 7.572C121.512 8.116 122.294 8.83 122.838 9.714V7.028H128.652V26H122.838V23.314C122.271 24.198 121.478 24.912 120.458 25.456C119.46 26 118.293 26.272 116.956 26.272C115.414 26.272 114.009 25.8753 112.74 25.082C111.47 24.266 110.462 23.1213 109.714 21.648C108.988 20.152 108.626 18.4293 108.626 16.48ZM122.838 16.514C122.838 15.0633 122.43 13.9187 121.614 13.08C120.82 12.2413 119.846 11.822 118.69 11.822C117.534 11.822 116.548 12.2413 115.732 13.08C114.938 13.896 114.542 15.0293 114.542 16.48C114.542 17.9307 114.938 19.0867 115.732 19.948C116.548 20.7867 117.534 21.206 118.69 21.206C119.846 21.206 120.82 20.7867 121.614 19.948C122.43 19.1093 122.838 17.9647 122.838 16.514ZM138.672 10.19C139.352 9.14733 140.202 8.33133 141.222 7.742C142.242 7.13 143.375 6.824 144.622 6.824V12.978H143.024C141.573 12.978 140.485 13.2953 139.76 13.93C139.035 14.542 138.672 15.63 138.672 17.194V26H132.858V7.028H138.672V10.19ZM146.245 16.514C146.245 14.542 146.642 12.8193 147.435 11.346C148.251 9.87267 149.373 8.73933 150.801 7.946C152.252 7.15267 153.906 6.756 155.765 6.756C158.145 6.756 160.128 7.37933 161.715 8.626C163.324 9.87267 164.378 11.6293 164.877 13.896H158.689C158.168 12.4453 157.159 11.72 155.663 11.72C154.598 11.72 153.748 12.1393 153.113 12.978C152.478 13.794 152.161 14.9727 152.161 16.514C152.161 18.0553 152.478 19.2453 153.113 20.084C153.748 20.9 154.598 21.308 155.663 21.308C157.159 21.308 158.168 20.5827 158.689 19.132H164.877C164.378 21.3533 163.324 23.0987 161.715 24.368C160.106 25.6373 158.122 26.272 155.765 26.272C153.906 26.272 152.252 25.8753 150.801 25.082C149.373 24.2887 148.251 23.1553 147.435 21.682C146.642 20.2087 146.245 18.486 146.245 16.514ZM179.649 6.824C181.825 6.824 183.57 7.54933 184.885 9C186.2 10.428 186.857 12.4 186.857 14.916V26H181.077V15.698C181.077 14.4287 180.748 13.4427 180.091 12.74C179.434 12.0373 178.55 11.686 177.439 11.686C176.328 11.686 175.444 12.0373 174.787 12.74C174.13 13.4427 173.801 14.4287 173.801 15.698V26H167.987V0.84H173.801V9.578C174.39 8.73933 175.195 8.07067 176.215 7.572C177.235 7.07333 178.38 6.824 179.649 6.824Z" fill="#D9D9D9"/>
</svg>
